Coordinates
version=1
nRows=13
nColumns=22
inDegrees=yes

Units are S.I. units (second, meters, Newtons, ...)
If the header above contains a line with 'inDegrees', this indicates whether rotational values are in degrees (yes) or radians (no).

endheader
time	pelvis_tilt	pelvis_list	pelvis_rotation	pelvis_tx	pelvis_ty	pelvis_tz	hip_flexion_r	hip_adduction_r	hip_rotation_r	knee_angle_r	ankle_angle_r	subtalar_angle_r	hip_flexion_l	hip_adduction_l	hip_rotation_l	knee_angle_l	ankle_angle_l	subtalar_angle_l	lumbar_extension	lumbar_bending	lumbar_rotation
      2.28000000	     -0.21798428	      5.14866078	    175.51002852	     -0.35641558	      1.00706396	      0.03957389	     16.08237004	      9.96017532	     -0.47406660	    -22.38886254	      4.86525472	     -5.36964764	      4.40667051	     -5.68158292	     -0.91025869	    -46.15625609	     12.10549394	      6.11376412	    -12.63764731	      5.47623384	      4.47027235
      2.29000000	     -0.10760736	      5.14038957	    175.59752002	     -0.35003643	      1.00633315	      0.04138697	     16.66192433	      9.83815590	     -0.63954378	    -22.45105201	      4.48357551	     -5.30136924	      3.53648882	     -5.31783312	     -0.53812048	    -45.08308587	     11.79679539	      6.67953007	    -12.50458489	      5.48263048	      4.14462684
      2.30000000	      0.02193276	      5.16403133	    175.69403270	     -0.34350598	      1.00552294	      0.04322165	     17.25138491	      9.74429199	     -0.82072422	    -22.47757279	      4.08630087	     -5.22908215	      2.70372498	     -5.01541576	     -0.19407305	    -43.85928567	     11.51650357	      7.05644357	    -12.37570694	      5.52015930	      3.83507801
      2.31000000	      0.16021578	      5.23255271	    175.78966172	     -0.33682663	      1.00464932	      0.04504784	     17.83382900	      9.69584089	     -1.00706639	    -22.45831088	      3.63250774	     -5.14308794	      1.89917653	     -4.80671774	      0.06561312	    -42.49148982	     11.33844421	      7.35682248	    -12.26592275	      5.60135108	      3.52765531
      2.32000000	      0.34811761	      5.33781087	    175.86753053	     -0.32996633	      1.00362595	      0.04684270	     18.46571224	      9.69400855	     -1.17120747	    -22.41276401	      3.11656792	     -5.06898089	      1.17637109	     -4.68799483	      0.21835279	    -40.99966189	     11.33760383	      7.46359702	    -12.12932831	      5.71665429	      3.25599984
      2.33000000	      0.43160470	      5.47485940	    176.00215515	     -0.32301170	      1.00274836	      0.04874086	     18.94821748	      9.69263968	     -1.41655771	    -22.28356613	      2.63408553	     -4.94466830	      0.36071704	     -4.63160409	      0.33821668	    -39.34952441	     11.45993220	      7.55820106	    -12.13891993	      5.85677614	      2.94737860
      2.34000000	      0.55510945	      5.63228007	    176.11487099	     -0.31585960	      1.00174086	      0.05059416	     19.47070192	      9.72412723	     -1.62510272	    -22.12582869	      2.06792149	     -4.83875322	     -0.36256659	     -4.65200613	      0.31147228	    -37.61989501	     11.85576784	      7.45940345	    -12.13432880	      6.00788685	      2.66079360
      2.35000000	      0.65514036	      5.80092171	    176.23671415	     -0.30854541	      1.00073351	      0.05247441	     19.95425108	      9.76056584	     -1.84057272	    -21.92255193	      1.49118579	     -4.73706549	     -1.05996518	     -4.71710269	      0.19540481	    -35.81951125	     12.51406277	      7.20096640	    -12.18672696	      6.15968808	      2.39670644
      2.36000000	      0.73681188	      5.95821161	    176.36492153	     -0.30105394	      0.99973842	      0.05436442	     20.40747357	      9.78178985	     -2.05591328	    -21.67788701	      0.88802294	     -4.64615928	     -1.70745058	     -4.79708499	     -0.00839581	    -33.99195609	     13.39231248	      6.80390795	    -12.28854396	      6.28227762	      2.14792579
      2.37000000	      0.79154491	      6.08095812	    176.50012110	     -0.29336572	      0.99879239	      0.05626474	     20.82380277	      9.76416546	     -2.26481119	    -21.39332738	      0.26080535	     -4.56844833	     -2.29656518	     -4.85650212	     -0.28436616	    -32.18514735	     14.41613168	      6.27203129	    -12.45329380	      6.34887731	      1.90354142
      2.38000000	      0.84935728	      6.18367396	    176.64676673	     -0.28548573	      0.99786757	      0.05813665	     21.21306672	      9.72946915	     -2.44402953	    -21.02945244	     -0.42547236	     -4.49765593	     -2.76066579	     -4.91941615	     -0.64816140	    -30.48445069	     15.54699181	      5.72723266	    -12.64116487	      6.37483973	      1.62987990
      2.39000000	      0.85647740	      6.21507797	    176.78710162	     -0.27742167	      0.99707340	      0.06000486	     21.54570664	      9.62104122	     -2.59903768	    -20.64775131	     -1.09178327	     -4.43493092	     -3.18200376	     -4.89274876	     -1.01269918	    -28.86368009	     16.63394727	      4.97893851	    -12.91941216	      6.29908586	      1.37687889
      2.40000000	      0.89334004	      6.23848809	    176.92030096	     -0.26919687	      0.99630482	      0.06178862	     21.86110667	      9.51986924	     -2.69318297	    -20.16146046	     -1.82241829	     -4.35489386	     -3.43054319	     -4.87011247	     -1.42122897	    -27.43489324	     17.68132977	      4.31300789	    -13.18834768	      6.19756246	      1.12460064
